<svg width="64" height="64" xmlns="http://www.w3.org/2000/svg" xmlns:xlink="http://www.w3.org/1999/xlink" xml:space="preserve" overflow="hidden"><g transform="translate(-608 -460)"><path d="M641.333 487.867 625.333 487.867 625.333 486.8 641.333 486.8ZM633.467 496 633.467 492 634.533 492 634.533 496ZM640.133 496 640.133 490.667 641.2 490.667 641.2 496ZM637.467 496 637.467 493.333 638.533 493.333 638.533 496ZM621.333 471.867 612 471.867 612 470.8 621.333 470.8ZM621.333 466.533 612 466.533 612 465.467 621.333 465.467ZM639.628 476.681C639.555 476.317 639.364 475.987 639.085 475.741 638.94 475.592 638.845 475.44 638.772 475.369L638.636 475.223C638.577 475.168 638.526 475.106 638.484 475.037 638.451 474.891 638.376 474.759 638.267 474.656 638.267 474.536 638.389 474.443 638.816 474.184 639.117 474.01 639.405 473.812 639.675 473.592L639.867 473.432 639.867 472.605C639.969 472.63 640.075 472.642 640.18 472.643 640.702 472.604 641.167 472.297 641.408 471.832 641.595 471.569 641.675 471.475 641.763 471.468 641.823 471.545 641.874 471.629 641.915 471.719 642.028 471.967 642.188 472.19 642.387 472.377 642.869 472.838 643.503 473.105 644.169 473.129 644.428 473.115 644.679 473.039 644.903 472.909 644.985 472.864 645.073 472.827 645.164 472.801 645.461 472.765 645.751 472.687 646.027 472.571 646.253 472.493 646.497 472.411 646.697 472.356 646.809 472.329 646.923 472.316 647.037 472.319 647.639 472.368 648.234 472.167 648.683 471.763 649.128 471.163 649.311 470.409 649.189 469.672 649.096 469.16 649.189 468.632 649.453 468.184 649.824 467.91 650.285 467.788 650.743 467.841 652.475 467.841 653.124 466.217 653.42 465.201L654.8 465.201 654.8 476.412C654.971 476.407 655.135 476.393 655.307 476.391 655.497 476.393 655.68 476.408 655.867 476.413L655.867 464.133 626.8 464.133 626.8 483.867 641.781 483.867C641.902 483.502 642.048 483.145 642.217 482.8L639.867 482.8 639.867 479.008 639.453 478.913C639.431 478.907 639.409 478.902 639.387 478.897 639.318 478.757 639.229 478.627 639.124 478.511 639.016 478.4 638.945 478.259 638.919 478.107L638.937 478.08C639.041 477.941 639.137 477.8 639.227 477.667 639.441 477.377 639.579 477.038 639.628 476.681ZM639.277 465.201 652.293 465.201C651.909 466.303 651.44 466.775 650.743 466.775 649.996 466.705 649.254 466.945 648.689 467.439 648.197 468.081 647.992 468.898 648.123 469.697 648.136 470.255 648.149 470.783 647.919 471.017 647.665 471.204 647.35 471.287 647.037 471.251 646.828 471.248 646.619 471.273 646.416 471.325 646.17 471.397 645.927 471.475 645.685 471.56 645.444 471.64 645.228 471.719 645.164 471.733 644.906 471.748 644.654 471.823 644.431 471.953 644.348 471.999 644.26 472.035 644.169 472.06 643.763 472.033 643.381 471.862 643.089 471.577 642.994 471.474 642.917 471.356 642.861 471.227 642.697 470.755 642.263 470.431 641.764 470.408 641.242 470.447 640.777 470.754 640.536 471.219 640.195 471.701 640.155 471.593 639.897 471.496 639.62 471.368 639.311 471.322 639.008 471.365 638.628 471.411 638.326 471.705 638.268 472.083 638.246 472.446 638.45 472.786 638.781 472.937 638.614 473.056 638.441 473.167 638.264 473.271 637.765 473.573 637.2 473.915 637.2 474.657 637.201 474.887 637.288 475.108 637.444 475.277 637.463 475.369 637.495 475.457 637.539 475.54 637.628 475.695 637.738 475.837 637.867 475.961L638.063 476.14C638.239 476.337 638.381 476.561 638.485 476.804 638.38 477.035 638.244 477.25 638.08 477.444 637.925 477.612 637.844 477.835 637.853 478.063L637.849 478.212C637.88 478.582 638.041 478.929 638.304 479.192 638.335 479.231 638.365 479.264 638.389 479.297 638.426 479.531 638.582 479.728 638.8 479.817L638.8 482.8 633.713 482.8 633.327 479.824 633.249 479.579C633.249 479.479 633.385 479.309 633.503 479.161 633.661 478.985 633.787 478.783 633.876 478.564 633.951 478.304 633.939 478.027 633.843 477.775 633.812 477.689 633.793 477.599 633.787 477.508 633.787 476.585 632.86 476.369 632.307 476.24 632.146 476.199 631.985 476.164 631.823 476.133 631.643 475.772 631.733 475.627 632.199 475.161 632.645 474.815 632.926 474.297 632.975 473.735 633.026 473.097 632.594 472.521 631.968 472.392 631.658 472.359 631.346 472.409 631.061 472.536 630.935 472.596 630.796 472.629 630.656 472.632 630.603 472.627 630.55 472.615 630.5 472.597 630.515 472.419 630.576 472.247 630.679 472.1 630.869 471.798 630.975 471.451 630.985 471.095 630.982 470.877 630.949 470.661 630.888 470.452 630.85 470.332 630.828 470.207 630.824 470.081 630.805 469.839 630.982 469.625 631.224 469.599 631.384 469.599 631.483 469.731 631.731 470.176 632.023 470.688 632.585 470.984 633.172 470.937 634.265 470.937 634.964 469.707 634.964 468.861 634.964 468.615 635.136 468.563 635.448 468.8 635.716 469.04 636.06 469.18 636.42 469.193 637.058 469.154 637.613 468.74 637.832 468.139 637.941 467.885 638.116 467.665 638.339 467.503 639.143 467.042 639.53 466.093 639.277 465.201ZM627.867 465.201 638.213 465.201C638.219 465.252 638.213 465.303 638.223 465.356 638.341 466.167 638.104 466.416 637.829 466.564 637.424 466.816 637.102 467.18 636.903 467.613 636.661 468.043 636.584 468.124 636.42 468.124 636.333 468.124 636.257 468.073 636.092 467.948 635.824 467.708 635.481 467.569 635.121 467.555 634.424 467.579 633.876 468.162 633.897 468.86 633.897 469.24 633.559 469.868 633.172 469.868 632.781 469.868 632.705 469.731 632.652 469.633 632.434 469.017 631.876 468.585 631.224 468.529 630.391 468.554 629.736 469.247 629.757 470.08 629.761 470.297 629.794 470.513 629.856 470.721 629.894 470.842 629.915 470.968 629.919 471.095 629.903 471.272 629.842 471.442 629.741 471.588 629.55 471.89 629.444 472.238 629.433 472.596 629.469 473.237 630.015 473.728 630.656 473.697 630.929 473.695 631.199 473.638 631.449 473.529 631.564 473.472 631.689 473.44 631.817 473.433 631.876 473.523 631.907 473.627 631.908 473.733 631.908 473.929 631.735 474.119 631.447 474.405 630.733 474.894 630.487 475.833 630.869 476.609 631.149 476.998 631.586 477.243 632.064 477.277 632.296 477.311 632.518 477.389 632.72 477.508 632.725 477.701 632.758 477.892 632.819 478.075 632.83 478.123 632.846 478.17 632.868 478.215 632.813 478.314 632.747 478.407 632.672 478.492 632.386 478.785 632.213 479.17 632.183 479.579 632.189 479.684 632.209 479.789 632.243 479.889L632.636 482.8 627.867 482.8ZM641.333 498.8 623.867 498.8 623.867 461.2 658.253 461.2C658.596 461.256 658.836 461.569 658.8 461.915L658.8 476.693C659.16 476.752 659.519 476.816 659.865 476.893L659.865 461.915C659.908 460.979 659.189 460.184 658.253 460.133L609.747 460.133C608.811 460.183 608.09 460.978 608.133 461.915L608.133 498.085C608.09 499.022 608.811 499.817 609.747 499.867L641.333 499.867ZM622.8 498.8 609.747 498.8C609.404 498.744 609.164 498.431 609.2 498.085L609.2 461.915C609.164 461.569 609.404 461.256 609.747 461.2L622.8 461.2ZM621.333 477.2 612 477.2 612 476.133 621.333 476.133ZM616.667 485.467 616.133 485.467 616.133 490.533 621.2 490.533 621.2 490C621.197 487.497 619.169 485.47 616.667 485.467ZM617.2 489.467 617.2 486.573C618.69 486.808 619.859 487.977 620.093 489.467ZM619.488 492 620.715 492C619.616 494.242 616.908 495.168 614.667 494.069 612.425 492.971 611.499 490.263 612.597 488.021 613.038 487.121 613.766 486.393 614.667 485.952L614.667 487.179C613.105 488.279 612.731 490.438 613.831 492 614.932 493.562 617.091 493.936 618.653 492.835 618.977 492.607 619.259 492.324 619.488 492Z"/><path d="M671.867 519.333C671.867 522.309 663.549 523.867 655.333 523.867 647.117 523.867 638.8 522.309 638.8 519.333 638.8 517.529 641.861 516.251 646.096 515.52L647.139 516.437C642.516 517.141 639.867 518.364 639.867 519.333 639.867 520.781 645.751 522.8 655.333 522.8 664.916 522.8 670.8 520.781 670.8 519.333 670.8 518.364 668.151 517.141 663.529 516.437L664.571 515.52C668.805 516.251 671.867 517.529 671.867 519.333ZM665.853 510.661C666.326 510.217 666.575 509.585 666.533 508.937L666.533 486.58C666.533 482.281 661.929 479.244 655.329 479.192 648.737 479.244 644.133 482.281 644.133 486.579L644.133 508.939C644.092 509.585 644.341 510.215 644.813 510.659L653.776 518.552 655.333 519.829ZM665.467 486.58 665.467 508.937C665.511 509.278 665.393 509.619 665.149 509.86L656.216 517.727 655.333 518.449 645.515 509.857C645.272 509.617 645.155 509.276 645.2 508.937L645.2 486.58C645.2 482.905 649.368 480.305 655.329 480.26 661.299 480.305 665.467 482.905 665.467 486.58ZM661.2 492.667C661.2 489.427 658.573 486.8 655.333 486.8 652.093 486.8 649.467 489.427 649.467 492.667 649.467 495.907 652.093 498.533 655.333 498.533 658.572 498.53 661.196 495.905 661.2 492.667ZM660.133 492.667C660.133 495.318 657.984 497.467 655.333 497.467 652.682 497.467 650.533 495.318 650.533 492.667 650.533 490.016 652.682 487.867 655.333 487.867 657.983 487.87 660.13 490.017 660.133 492.667Z"/></g></svg>