<svg width="64" height="64" xmlns="http://www.w3.org/2000/svg" xmlns:xlink="http://www.w3.org/1999/xlink" xml:space="preserve" overflow="hidden"><g transform="translate(-716 -446)"><path d="M726.667 471.2C728.8 471.201 730.53 469.473 730.532 467.34 730.532 466.56 730.297 465.798 729.856 465.155L738.872 456.957C740.036 457.959 741.692 458.152 743.055 457.444L753.399 472.492C751.814 473.927 751.693 476.375 753.127 477.959 754.562 479.544 757.01 479.665 758.595 478.23 759.977 476.979 760.27 474.919 759.292 473.331L768.051 466.163C769.637 467.641 772.122 467.553 773.6 465.966 775.079 464.379 774.991 461.895 773.404 460.417 771.817 458.938 769.332 459.026 767.854 460.613 766.653 461.902 766.458 463.833 767.376 465.336L758.616 472.504C757.449 471.396 755.708 471.149 754.279 471.889L743.935 456.84C745.507 455.4 745.613 452.958 744.173 451.386 742.733 449.814 740.291 449.708 738.72 451.148 737.302 452.447 737.056 454.591 738.144 456.177L729.128 464.375C728.44 463.792 727.568 463.47 726.667 463.467 724.531 463.467 722.8 465.198 722.8 467.333 722.8 469.469 724.531 471.2 726.667 471.2ZM770.667 460.533C772.213 460.533 773.467 461.787 773.467 463.333 773.467 464.88 772.213 466.133 770.667 466.133 769.12 466.133 767.867 464.88 767.867 463.333 767.868 461.788 769.121 460.535 770.667 460.533ZM758.8 475.333C758.8 476.88 757.546 478.133 756 478.133 754.454 478.133 753.2 476.88 753.2 475.333 753.2 473.787 754.454 472.533 756 472.533 757.546 472.535 758.799 473.788 758.8 475.333ZM741.333 451.2C742.88 451.2 744.133 452.454 744.133 454 744.133 455.546 742.88 456.8 741.333 456.8 739.787 456.8 738.533 455.546 738.533 454 738.535 452.454 739.788 451.201 741.333 451.2ZM726.667 464.533C728.213 464.533 729.467 465.787 729.467 467.333 729.467 468.88 728.213 470.133 726.667 470.133 725.12 470.133 723.867 468.88 723.867 467.333 723.868 465.788 725.121 464.535 726.667 464.533ZM764.987 483.467 732.347 483.467 721.112 504.533 776.221 504.533ZM739.74 489.867 748.133 489.867 748.133 495.467 738.213 495.467ZM737.108 495.467 727.156 495.467 730.143 489.867 738.636 489.867ZM770.177 495.467 760.227 495.467 758.7 489.867 767.193 489.867ZM759.12 495.467 749.2 495.467 749.2 489.867 757.593 489.867ZM749.2 488.8 749.2 484.533 756.139 484.533 757.301 488.8ZM748.133 488.8 740.032 488.8 741.195 484.533 748.133 484.533ZM748.133 496.533 748.133 503.467 736.032 503.467 737.923 496.533ZM749.2 496.533 759.411 496.533 761.301 503.467 749.2 503.467ZM760.516 496.533 770.747 496.533 774.444 503.467 762.407 503.467ZM766.623 488.8 758.407 488.8 757.244 484.533 764.347 484.533ZM732.987 484.533 740.089 484.533 738.927 488.8 730.712 488.8ZM726.587 496.533 736.817 496.533 734.927 503.467 722.889 503.467Z"/></g></svg>